<svg width="32" height="32" viewBox="0 0 32 32" fill="none" xmlns="http://www.w3.org/2000/svg">
<path d="M30.0538 8.56065C29.8954 7.92786 29.5728 7.34808 29.1186 6.87986C28.6645 6.41164 28.0948 6.07156 27.4671 5.89398C25.1738 5.33398 16.0004 5.33398 16.0004 5.33398C16.0004 5.33398 6.8271 5.33398 4.53377 5.94732C3.9061 6.1249 3.33641 6.46497 2.88223 6.93319C2.42806 7.40141 2.10549 7.9812 1.9471 8.61398C1.52739 10.9414 1.32208 13.3024 1.33377 15.6673C1.31881 18.05 1.52413 20.4291 1.9471 22.774C2.12172 23.3871 2.45151 23.9448 2.90463 24.3933C3.35774 24.8417 3.91886 25.1657 4.53377 25.334C6.8271 25.9473 16.0004 25.9473 16.0004 25.9473C16.0004 25.9473 25.1738 25.9473 27.4671 25.334C28.0948 25.1564 28.6645 24.8163 29.1186 24.3481C29.5728 23.8799 29.8954 23.3001 30.0538 22.6673C30.4702 20.3574 30.6755 18.0144 30.6671 15.6673C30.6821 13.2846 30.4767 10.9056 30.0538 8.56065V8.56065Z" stroke="black" stroke-width="2" stroke-linecap="round" stroke-linejoin="round"/>
<path d="M13 20.0266L20.6667 15.6666L13 11.3066V20.0266Z" stroke="black" stroke-width="2" stroke-linecap="round" stroke-linejoin="round"/>
</svg>
