<svg width="30" height="24" viewBox="0 0 30 24" fill="none" xmlns="http://www.w3.org/2000/svg">
<path d="M29.8333 0.0134076C28.5565 0.914044 27.1428 1.60289 25.6467 2.05341C24.8437 1.13009 23.7764 0.475664 22.5894 0.178642C21.4023 -0.118379 20.1527 -0.0436649 19.0094 0.392679C17.8662 0.829022 16.8846 1.60594 16.1973 2.61836C15.51 3.63078 15.1503 4.82986 15.1667 6.05341V7.38674C12.8235 7.4475 10.5017 6.92782 8.40801 5.874C6.31432 4.82018 4.51376 3.26492 3.16667 1.34674C3.16667 1.34674 -2.16667 13.3467 9.83333 18.6801C7.08737 20.544 3.81621 21.4786 0.5 21.3467C12.5 28.0134 27.1667 21.3467 27.1667 6.01341C27.1654 5.64201 27.1297 5.27153 27.06 4.90674C28.4208 3.56473 29.3811 1.87036 29.8333 0.0134076Z" fill="#099DED"/>
</svg>
