<svg preserveAspectRatio="none" width="191" height="48" viewBox="0 0 191 48" fill="none" xmlns="http://www.w3.org/2000/svg">
<g clip-path="url(#clip0_340_663)">
<path d="M131.959 28.0976H111.166C111.266 29.6029 111.766 31.1081 112.665 32.513C113.465 33.7171 114.465 34.7206 115.664 35.4231C116.864 36.1255 118.164 36.4266 119.563 36.4266C121.063 36.4266 122.562 36.1255 123.862 35.3227C125.061 34.5199 125.961 33.4161 126.461 32.1116H131.259C130.76 33.7171 129.96 35.122 128.86 36.3262C127.761 37.6307 126.361 38.6342 124.762 39.3367C122.862 40.1394 120.863 40.5408 118.863 40.4405C116.864 40.3401 114.865 39.7381 113.065 38.6342C111.166 37.43 109.566 35.8245 108.467 33.8175C107.367 31.7102 106.767 29.4022 106.767 27.0942C106.767 24.6858 107.367 22.3778 108.467 20.3708C109.566 18.3638 111.166 16.6579 113.065 15.4537C115.065 14.2496 117.264 13.6475 119.563 13.6475C121.762 13.6475 123.962 14.2496 125.961 15.4537C127.861 16.5576 129.36 18.2635 130.36 20.1701C131.459 22.0767 131.959 24.2844 131.959 26.4921C132.059 26.5924 132.059 27.1945 131.959 28.0976ZM127.761 24.3847C127.661 23.1806 127.261 21.9764 126.461 21.0732C125.661 20.0698 124.662 19.1666 123.462 18.5645C122.262 17.9624 120.863 17.6614 119.563 17.6614C118.364 17.6614 117.064 17.9624 115.964 18.4642C114.865 18.9659 113.865 19.7687 113.065 20.7722C112.265 21.876 111.666 23.0802 111.366 24.3847H127.761Z" fill="#B4FF00"/>
<path d="M140.256 39.7383H135.958V25.6895C135.958 22.679 137.157 19.6686 139.257 17.5613C141.356 15.3536 144.255 14.1494 147.254 14.1494H150.053V18.4644H147.254C145.355 18.4644 143.555 19.2672 142.256 20.5717C140.956 21.8762 140.156 23.7829 140.156 25.6895L140.256 39.7383Z" fill="#B4FF00"/>
<path d="M91.3708 13.5472C87.9719 13.5472 84.6729 14.8518 82.1737 17.2601L82.2737 4.61621H78.075V27.0943C78.075 29.7033 78.8747 32.3124 80.3743 34.52C81.8738 36.7277 83.8732 38.4336 86.3724 39.4371C88.7716 40.4406 91.4708 40.7416 94.07 40.1396C96.6692 39.6378 98.9684 38.3333 100.868 36.4267C102.667 34.52 103.967 32.1117 104.467 29.5026C104.967 26.8936 104.667 24.1842 103.667 21.7758C102.667 19.3674 100.968 17.2601 98.7685 15.7549C96.5692 14.35 93.97 13.5472 91.3708 13.5472ZM91.3708 36.4267C89.5714 36.4267 87.7719 35.8246 86.1725 34.8211C84.6729 33.8176 83.4733 32.3124 82.7735 30.6065C82.0737 28.9005 81.8738 26.9939 82.2737 25.1876C82.6736 23.3814 83.4733 21.6754 84.7729 20.3709C86.0725 19.0664 87.7719 18.1632 89.5714 17.7619C91.3708 17.3605 93.2702 17.5612 94.9697 18.2636C96.6692 18.966 98.1687 20.1702 99.1684 21.7758C100.168 23.281 100.768 25.1876 100.768 26.9939C100.768 29.5026 99.7682 31.911 98.0687 33.6169C96.2693 35.4232 93.87 36.4267 91.3708 36.4267Z" fill="#B4FF00"/>
<path d="M177.744 14.1493H168.347V4.61621H164.049V14.1493H154.651V18.4643H164.049V27.9974H168.347V18.4643H177.744V14.1493Z" fill="#B4FF00"/>
<path d="M40.3867 15.2532V11.6406H36.7878V15.2532H33.189V18.8657H36.7878V22.4783H40.3867V18.8657H43.9856V15.2532H40.3867Z" fill="#B4FF00"/>
<path d="M29.6898 18.8655V15.2529H26.091V18.8655H22.4921V22.478H26.091V26.0906H29.6898V22.478H33.2887V18.8655H29.6898Z" fill="#B4FF00"/>
<path d="M29.6898 4.41528V0.802734H26.091V4.41528H22.4921V8.02782H26.091V11.6404H29.6898V8.02782H33.2887V4.41528H29.6898Z" fill="#B4FF00"/>
<path d="M18.5936 22.7792V19.8691H15.6945V22.7792H12.7954V25.6894H15.6945V28.5995H18.5936V25.6894H21.4927V22.7792H18.5936Z" fill="#B4FF00"/>
<path d="M15.0952 11.9416V9.13184H12.1961V12.0419H9.39697V14.952H12.2961V17.8621H15.1952V14.952H18.0942V12.0419H15.0952V11.9416Z" fill="#B4FF00"/>
<path d="M33.2895 29.7034V26.0908H29.6907V29.7034H26.0918V33.3159H29.6907V36.9284H33.2895V33.3159H36.8884V29.7034H33.2895Z" fill="#B4FF00"/>
<path d="M36.7878 8.02832H33.189V11.6409H36.7878V8.02832Z" fill="#B4FF00"/>
<path d="M40.3878 4.41602H36.789V8.02856H40.3878V4.41602Z" fill="#B4FF00"/>
<path d="M40.3878 26.0908H36.789V29.7034H40.3878V26.0908Z" fill="#B4FF00"/>
<path d="M10.9973 19.6676V17.8613H9.19784V19.6676H7.29844V21.4739H9.09787V23.2801H10.9973V21.4739H12.7967V19.6676H10.9973Z" fill="#B4FF00"/>
<path d="M4.59854 16.0563V14.25H2.69914V16.0563H0.899704V17.8625H2.69914V19.6688H4.49857V17.8625H6.29801V16.0563H4.59854Z" fill="#B4FF00"/>
<path d="M43.9858 15.2529H40.3869V11.6404H36.788V8.62991L19.3935 31.2083C18.7937 31.9107 18.4938 32.8139 18.2938 33.717C18.1939 34.6202 18.2938 35.5233 18.5937 36.4264C18.8936 37.3296 19.3935 38.032 20.0933 38.6341C20.7931 39.2362 21.5928 39.6376 22.4925 39.8383V36.9282H18.9936V33.3156H22.5925V29.7031H26.1914V33.3156H29.7902V35.4229L34.1888 29.7031H33.3891V26.0905H29.7902V22.478H33.3891V18.8655H36.988V22.478H39.7871L40.4869 21.5749V18.8655H43.9858V15.2529ZM40.3869 5.21806C39.3872 5.71981 38.4875 6.42225 37.7877 7.32538L37.2879 8.02782H40.3869V5.21806ZM47.4847 18.8655H51.0835V13.3463V12.0418C51.0835 10.1351 50.3838 8.22852 48.9842 6.82364C47.6846 5.41876 45.8852 4.61597 43.8858 4.51562V8.02782H47.4847V11.6404H43.9858V15.2529H47.5846L47.4847 18.8655ZM51.0835 29.101V22.478H47.4847V26.0905H43.9858V22.478H40.4869V35.1219C40.4869 36.2257 40.7868 37.3296 41.4865 38.2327C42.0864 39.1358 43.086 39.8383 44.0857 40.2397C45.0854 40.6411 46.285 40.6411 47.2847 40.34C48.3844 40.039 49.2841 39.3365 49.9839 38.5337C50.1838 38.333 50.3838 38.1324 50.4837 37.9317L54.1826 33.1149C53.2828 32.9142 52.4831 32.4125 51.9832 31.7101C51.3834 30.9073 51.0835 30.0041 51.0835 29.101ZM26.0914 39.2362C26.6912 38.9351 27.291 38.4334 27.7909 37.8313L28.4906 36.9282H26.0914V39.2362ZM72.3768 17.9623C71.4771 17.2599 70.3775 16.9588 69.2778 17.0592C68.1782 17.1595 67.1785 17.7616 66.4787 18.6648L63.0798 23.0801V35.0216C63.0798 36.4264 63.6796 37.8313 64.6793 38.8348C65.6789 39.8383 66.9785 40.4404 68.4781 40.4404C69.9776 40.4404 71.2772 39.8383 72.2769 38.8348C73.2766 37.8313 73.8764 36.4264 73.8764 35.0216V19.8689C73.4765 19.1665 72.9767 18.4641 72.3768 17.9623ZM68.778 4.91702C67.2784 4.41528 65.7789 4.41528 64.2794 4.81667C62.7799 5.21806 61.4803 6.1212 60.5805 7.42573L52.2832 18.163V29.5024C52.2832 30.2048 52.4831 30.9073 52.783 31.5094C53.0829 32.1114 53.6827 32.6132 54.2825 33.0146L60.2806 25.1874L65.9788 17.7616C66.4787 17.1595 67.1785 16.6578 67.8783 16.3567C68.578 16.0557 69.4778 15.9553 70.2775 16.0557C71.0773 16.156 71.777 16.5574 72.4768 17.0592C73.0766 17.5609 73.5765 18.2634 73.8764 18.9658V12.0418C73.8764 10.4362 73.3765 8.93096 72.4768 7.72677C71.4771 6.42225 70.1775 5.41876 68.778 4.91702Z" fill="#B4FF00"/>
<path d="M22.593 40.4407V36.8281H18.9941V40.4407H15.3952V44.0532H18.9941V47.6658H22.593V44.0532H26.1918V40.4407H22.593Z" fill="#B4FF00"/>
<path d="M180.743 11.4396H179.543V5.92048H177.444V4.91699H182.742V6.02082H180.643V11.4396H180.743Z" fill="#B4FF00"/>
<path d="M187.241 9.83406L185.142 6.72326V11.4396H184.042V4.91699H185.242L187.241 8.02779L189.24 4.91699H190.44V11.54H189.34V6.72326L187.241 9.83406Z" fill="#B4FF00"/>
</g>
<defs>
<clipPath id="clip0_340_663">
<rect width="190.829" height="48" fill="white"/>
</clipPath>
</defs>
</svg>
