<svg id="e2h89vMfDZg1" xmlns="http://www.w3.org/2000/svg" xmlns:xlink="http://www.w3.org/1999/xlink" viewBox="0 0 257 256" shape-rendering="geometricPrecision" text-rendering="geometricPrecision">
<path d="M57.8767,204.41c26.3937,0,47.7903-21.396,47.7903-47.79s-21.3966-47.79-47.7903-47.79-47.79,21.396-47.79,47.79s21.3963,47.79,47.79,47.79Z" fill="#e1e6ed"/><path d="M195.487,60.78c10.156,0,18.39-8.2335,18.39-18.39s-8.234-18.39-18.39-18.39c-10.157,0-18.39,8.2335-18.39,18.39s8.233,18.39,18.39,18.39Z" fill="#fff924"/><path d="M195.487,40.9199l-22.17,32.8-15.65-15.65" fill="none" stroke="#000" stroke-width="2" stroke-linecap="round" stroke-miterlimit="10"/><path d="M73.6666,96.46L81.6766,84" fill="none" stroke="#000" stroke-width="2" stroke-linecap="round" stroke-miterlimit="10"/><path d="M184.947,37.6202l16.02-2.92l2.3,15.38" fill="none" stroke="#000" stroke-width="2" stroke-linecap="round" stroke-miterlimit="10"/><path d="M117.257,37.4795c0-.5523-.448-1-1-1-.553,0-1,.4477-1,1v3.91c0,.5523.447,1,1,1c.552,0,1-.4477,1-1v-3.91Zm-11.75,9.7598c-.553,0-1,.4477-1,1c0,.5522.447,1,1,1h3.91c.552,0,1-.4478,1-1c0-.5523-.448-1-1-1h-3.91Zm16.6,1c0-.5523.447-1,1-1h3.91c.552,0,1,.4477,1,1c0,.5522-.448,1-1,1h-3.91c-.553,0-1-.4478-1-1Zm-4.85,6.8398c0-.5523-.448-1-1-1-.553,0-1,.4477-1,1v4.55c0,.5523.447,1,1,1c.552,0,1-.4477,1-1v-4.55Z" clip-rule="evenodd" fill-rule="evenodd"/><path d="M209.287,102.52l.56.56c1.71,1.71,4.47,1.71,6.18,0l1.56-1.56c1.71-1.7099,4.47-1.7099,6.18,0l1.69,1.69c1.71,1.71,4.47,1.71,6.18,0l1.87-1.87c1.71-1.7099,4.47-1.7099,6.18,0l1.3,1.3c1.71,1.71,4.47,1.71,6.18,0" fill="none" stroke="#000" stroke-width="2" stroke-linecap="round" stroke-miterlimit="10"/><path d="M107.877,213.53c1.71-1.71,4.47-1.71,6.18,0l.56.56c1.71,1.71,4.47,1.71,6.18,0l1.56-1.56c1.71-1.71,4.47-1.71,6.18,0l1.69,1.69c1.71,1.71,4.47,1.71,6.18,0l1.87-1.87" fill="none" stroke="#000" stroke-width="2" stroke-linecap="round" stroke-miterlimit="10"/><path d="M43.2452,127.252l-2.1566-2.157c-2.2963-2.296-6.0193-2.296-8.3156,0l-2.1567,2.157c-2.2963,2.296-2.2963,6.019,0,8.316l2.1567,2.156c2.2963,2.296,6.0193,2.296,8.3156,0l2.1566-2.156c2.2963-2.297,2.2963-6.02,0-8.316Z" fill="none" stroke="#000" stroke-width="2" stroke-linecap="round" stroke-miterlimit="10"/><path d="M215.747,180.349l-.516-.516c-2.324-2.323-6.091-2.323-8.415,0l-.516.516c-2.324,2.324-2.324,6.091,0,8.415l.516.516c2.324,2.324,6.091,2.324,8.415,0l.516-.516c2.324-2.324,2.324-6.091,0-8.415Z" fill="#fff924" stroke="#000" stroke-width="2" stroke-linecap="round" stroke-miterlimit="10"/><path d="M36.1215,59.4809c.5355-.1353,1.0793.189,1.2147.7244l.6699,2.65.4282,1.6934l4.6991-1.1786c.5357-.1343,1.0789.191,1.2132.7267s-.191,1.0789-.7267,1.2132l-9.3683,2.3496-.0009.0003c-2.3377.591-3.7741,3.0052-3.1641,5.4369.6103,2.4328,3.0202,3.8836,5.3552,3.2937l.001-.0002.3323-.0836c.019-.0059.0382-.0114.0578-.0163l5.2889-1.3297.0006-.0002c3.4448-.8698,6.9146,1.2794,7.7843,4.7464.8699,3.468-1.1733,6.9935-4.6151,7.8628l-.0012.0003-1.0188.2561.4246,1.6796.67,2.65c.1354.5354-.1889,1.0792-.7244,1.2146s-1.0792-.1889-1.2146-.7244l-.67-2.65-.4253-1.6823L35.7804,89.96c-.5356.1347-1.0789-.1904-1.2135-.7261s.1904-1.0789.7261-1.2135l9.5088-2.3897.0009-.0003c2.3377-.591,3.774-3.0052,3.1641-5.4369-.6103-2.4328-3.0202-3.8836-5.3552-3.2938l-.0011.0003-.3322.0836c-.019.0059-.0383.0114-.0578.0163l-5.2889,1.3297-.0009.0003h-.0002c-3.4446.8695-6.9141-1.2797-7.7838-4.7465-.8699-3.468,1.1733-6.9935,4.6151-7.8629l.0016-.0004l2.731-.6849-.4272-1.6897-.67-2.6499c-.1354-.5355.1889-1.0793.7243-1.2147Z" clip-rule="evenodd" fill-rule="evenodd"/><path d="M17.2367,178.831c-3.16-4.8-1.83-11.26,2.97-14.42l19.46-11.28l36.2,48.49c3.58,4.8,2.39,11.63-2.62,14.93l-13.75,7.52c-4.8,3.16-11.26,1.83-14.42-2.97l-13.85-21.04" fill="#83ca32"/><path d="M55.4267,211.38c3.6064,0,6.53-2.923,6.53-6.53c0-3.606-2.9236-6.53-6.53-6.53s-6.53,2.924-6.53,6.53c0,3.607,2.9236,6.53,6.53,6.53Z" fill="none" stroke="#fff" stroke-width="2" stroke-linecap="round" stroke-miterlimit="10"/><path d="M210.595,133.144l.004-.002-29.771,34.742c-1.232.603-2.486,1.159-3.762,1.668h-.001l-21.87,8.75c-6.532,2.613-13.506,3.958-20.538,3.958h-33.9c-5.4742,0-10.8128,1.673-15.3098,4.788l-8.907,6.171-20.2894-27.145-6.121-8.2l8.1505-6.334c.4361-.339.5149-.967.176-1.403s-.9672-.515-1.4033-.176l-8.1199,6.31-6.905-9.249-.5326-.713-.7703.446-19.46,11.28-.0246.014-.0237.016c-5.2615,3.464-6.719,10.544-3.2554,15.805.3037.461.9238.589,1.3851.286.4613-.304.5891-.924.2854-1.386-2.8513-4.331-1.6582-10.157,2.6614-13.019L40.958,148.932l6.3956,8.567-.0054.004.5875.786l6.7128,8.981l21.9766,29.438.0003.001c3.2283,4.328,2.1653,10.483-2.3354,13.474l-13.7131,7.5-.0359.02-.0341.022c-4.3389,2.856-10.1787,1.654-13.0349-2.685L33.622,194c-.3037-.461-.9238-.589-1.3851-.285s-.5891.924-.2854,1.385l13.85,21.04.8352-.55-.8352.55c3.4561,5.25,10.5126,6.713,15.7702,3.278l13.7149-7.5.0359-.02.0343-.023c5.4911-3.616,6.7949-11.102,2.8715-16.363h-.0002l-.5065-.678l8.8646-6.142c4.163-2.884,9.1044-4.432,14.1708-4.432h33.9c7.287,0,14.513-1.394,21.281-4.101l21.869-8.75l3.021-3.525c0,0,.001,0,.001,0l-3.021,3.525c4.978-1.985,9.649-4.672,13.882-7.959v0l25.58-19.88-.613-.79.613.79c2.865-2.227,3.645-6.232,1.798-9.367v-.001c-1.903-3.225-5.952-4.467-9.33-2.865v0l-.006.003-41.037,19.782c-2.701-3.927-7.164-6.523-12.215-6.691l-15.2-.51-.033,1l.033-1c-6.454-.216-12.83-1.456-18.902-3.66l-17.119-6.23h-.001c-3.208-1.166-6.5887-1.825-9.999-1.969h-.0004l-4.06-.17c-.5518-.023-1.0179.405-1.041.957s.4055,1.018.9573,1.041l4.0596.17h.0004c3.2094.136,6.3881.756,9.4001,1.851v0l17.12,6.23v0c6.269,2.275,12.852,3.556,19.518,3.779l15.2.51h.001c6.456.215,11.808,4.988,12.823,11.295l-12.306,3.81v.001c-8.692,2.686-17.788,3.881-26.883,3.506h-.001l-24.77-1.01c-.551-.023-1.017.406-1.039.958-.023.552.406,1.017.958,1.04l24.769,1.01c9.325.385,18.649-.84,27.557-3.594h.001l13.11-4.06.78-.242-.081-.813c-.197-1.964-.756-3.813-1.609-5.484l40.872-19.703Zm-29.766,34.74l29.77-34.742c2.441-1.155,5.369-.257,6.746,2.076c1.334,2.264.773,5.16-1.302,6.773l-25.58,19.88v0c-3.001,2.33-6.229,4.347-9.634,6.013ZM21.3969,177.275c.4614-.303,1.0815-.176,1.3851.286l7.39,11.23c.3036.461.1757,1.081-.2856,1.385-.4614.303-1.0815.176-1.3851-.286l-7.39-11.23c-.3036-.461-.1757-1.081.2856-1.385Zm44.2913-11.419c-.3227-.448-.9476-.55-1.3958-.227s-.5499.948-.2272,1.396l11.93,16.57c.3226.448.9476.55,1.3958.227s.5499-.947.2272-1.396l-11.93-16.57Zm-5.1368-5.577c.4593-.307,1.0802-.183,1.3869.276l2.15,3.22c.3067.46.183,1.08-.2763,1.387s-1.0803.183-1.387-.276l-2.15-3.22c-.3067-.459-.1829-1.08.2764-1.387Zm24.7064-27.311c.0735.547-.3107,1.05-.8581,1.124-1.4407.193-2.8641.493-4.2707.891-6.0086,1.706-11.3767,5.165-15.3973,9.942l-.0007.001-2.86,3.39c-.3561.422-.987.475-1.4092.119-.4221-.356-.4756-.987-.1195-1.409l2.8593-3.389.0004-.001c4.2792-5.083,9.9907-8.763,16.3816-10.577l.001-.001c1.4934-.422,3.0098-.742,4.549-.948.5474-.074,1.0507.31,1.1242.858Z" clip-rule="evenodd" fill-rule="evenodd"/><g id="e2h89vMfDZg16_to" transform="translate(148.321752,105.362699)"><g transform="translate(-148.210747,-105.651299)" clip-path="url(#e2h89vMfDZg19)"><g><path d="M105.766,90.5186v2.3331h2.315v2.3331h-2.315v2.3331h-2.315v-2.3331h-2.315v-2.3331h2.315v-2.3331h2.315Zm33.763,10.6284c1.608-1.5551,3.73-2.3976,5.916-2.3976c1.672,0,3.344.5185,4.759,1.4256c1.415.972,2.508,2.333,3.151,3.889.643,1.555.836,3.305.515,4.99-.322,1.685-1.158,3.24-2.315,4.472-1.222,1.231-2.701,2.074-4.373,2.398-1.672.388-3.409.194-4.952-.454-1.608-.648-2.894-1.75-3.859-3.176-.964-1.425-1.479-3.11-1.479-4.795v-14.5176h2.701l-.064,8.1656Zm2.572,11.342c1.029.648,2.187,1.037,3.344,1.037c1.608,0,3.151-.648,4.309-1.815c1.093-1.102,1.736-2.657,1.736-4.277c0-1.167-.386-2.398-1.029-3.37-.643-1.037-1.607-1.815-2.701-2.269-1.093-.453-2.315-.583-3.472-.324-1.158.26-2.251.843-3.087,1.685-.836.843-1.351,1.945-1.608,3.111-.257,1.167-.129,2.398.322,3.5.45,1.102,1.222,2.074,2.186,2.722Zm29.455-4.342h-13.377c.065.972.386,1.944.965,2.851.515.778,1.158,1.426,1.929,1.88.772.454,1.608.648,2.508.648.965,0,1.93-.194,2.766-.713.771-.518,1.35-1.231,1.672-2.074h3.087c-.322,1.037-.836,1.944-1.544,2.722-.707.843-1.607,1.491-2.636,1.944-1.222.519-2.509.778-3.795.713s-2.572-.453-3.73-1.166c-1.222-.778-2.25-1.815-2.958-3.111-.707-1.361-1.093-2.852-1.093-4.342c0-1.556.386-3.046,1.093-4.342.708-1.297,1.736-2.398,2.958-3.176c1.287-.7777,2.701-1.1665,4.18-1.1665c1.415,0,2.83.3888,4.116,1.1665c1.222.713,2.187,1.815,2.83,3.046.707,1.231,1.029,2.657,1.029,4.083.064.065.064.454,0,1.037Zm-2.701-2.398c-.064-.778-.322-1.555-.836-2.139-.515-.648-1.158-1.231-1.929-1.62-.772-.389-1.673-.583-2.509-.583-.771,0-1.607.194-2.315.518-.707.324-1.35.843-1.865,1.491-.514.713-.9,1.49-1.093,2.333h10.547Zm8.038,9.915h-2.765v-9.073c0-1.945.772-3.889,2.122-5.25c1.351-1.4256,3.216-2.2033,5.145-2.2033h1.801v2.7863h-1.801c-1.222,0-2.38.519-3.216,1.361-.836.843-1.35,2.074-1.35,3.306l.064,9.073Zm24.116-16.5258h-6.045v-6.1568h-2.765v6.1568h-6.046v2.7868h6.046v6.157h2.765v-6.157h6.045v-2.7868Zm-88.362-1.6206v2.3329h2.315v.0002h.001v2.3333h-2.251v1.749l-.065.084v.5h-2.315v-2.333h-2.186v2.333h-.065v0h-2.251v2.333h2.316v2.333h.514v.001h1.673v-2.333h2.315v2.333h-2.251v2.333h-2.315v2.333h-2.315v-2.333h-2.316v-2.333h.064v-.001h-2.315v2.333h-2.315v2.333h.0005v-.064h2.3155v2.333h2.315v2.333h-2.315v2.333h-2.3155v-2.333h-2.3152v-2.333h2.3152v-2.012c-.1025-.179-.1884-.371-.2577-.581-.1929-.583-.2572-1.166-.1929-1.75.1286-.583.3215-1.166.7074-1.62l4.3087-5.615v-.023h-2.315v-2.333h2.315v-2.3334h2.315v1.6724l3.073-4.0044h-.822v-2.3331h2.315v2.3319h2.315v.0002v0Zm2.315,2.3329v-2.3331h2.251v-2.3331h-2.315v-2.2683c1.286.0648,2.444.5833,3.28,1.4906.9.9073,1.35,2.1387,1.35,3.37v.8426v3.5648h-2.315l.065-2.3335h-2.316ZM98.6278,104.711v-1.879h-1.865v1.879h-1.865v1.88h1.865v1.879h1.865v-1.879h1.8652v-1.88h-1.8652Zm-2.2504-8.8135v1.8146.0648h1.9293v1.8794h-1.865v1.8797h-1.8649v-1.8797h-1.865v-1.8794h1.8007v-1.8794h1.8649Zm16.2706-3.0459h-2.315v2.3331h2.315v-2.3331ZM93.7411,102.702v-1.167h-1.1575v1.167h-1.2219v1.166h1.1576v1.167h1.2218v-1.167h1.1576v-1.166h-1.1576Zm-4.1162-3.4989v1.1669h1.0933v1.166h-1.1576v1.167h-1.1575v-1.167h-1.1576v-1.166h1.1576v-1.1669h1.2218Zm29.9031,9.5909v-4.277h-2.315v2.333h-2.251v-2.333h-2.25v8.166c0,.712.193,1.425.643,2.009.386.583,1.029,1.037,1.672,1.296s1.415.259,2.058.065c.707-.195,1.286-.648,1.736-1.167.129-.13.257-.259.322-.389l2.379-3.111c-.579-.129-1.093-.453-1.415-.907-.386-.518-.579-1.102-.579-1.685Zm-16.077,6.546c.386-.195.772-.519,1.093-.908l.45-.583h-1.543v1.491Zm29.775-13.74c-.578-.453-1.286-.648-1.993-.583-.708.065-1.351.454-1.801,1.037l-2.186,2.852v7.712c0,.907.385,1.814,1.029,2.462.643.649,1.479,1.037,2.443,1.037.965,0,1.801-.388,2.444-1.037.643-.648,1.029-1.555,1.029-2.462v-9.786c-.257-.454-.579-.908-.965-1.232Zm-2.315-8.4248c-.964-.324-1.929-.324-2.894-.0648-.964.2593-1.8.8425-2.379,1.6851L120.3,101.73v7.323c0,.454.129.908.322,1.296.193.389.578.713.964.973l3.859-5.055l3.666-4.796c.321-.389.771-.713,1.221-.908.451-.194,1.029-.259,1.544-.194.514.065.964.324,1.415.648.386.324.707.778.9,1.231v-4.4714c0-1.0369-.322-2.009-.9-2.7867-.643-.8425-1.479-1.4906-2.38-1.8147Zm71.963,4.2131h-.708v-3.5644h-1.35v-.6481h3.408v.7129h-1.35v3.4996Zm2.894-3.046l1.35,2.0091l1.351-2.0091v3.1108h.707v-4.2773h-.771l-1.287,2.009-1.286-2.009h-.772v4.2125h.708v-3.046Z" clip-rule="evenodd" fill="#83ca32" fill-rule="evenodd"/></g><clipPath id="e2h89vMfDZg19"><rect width="122.76" height="31" rx="0" ry="0" transform="translate(86.6666 90)" fill="#fff"/></clipPath></g></g></svg>
